<?xml version="1.0" encoding="utf-8"?>
<!-- Generator: Adobe Illustrator 26.0.3, SVG Export Plug-In . SVG Version: 6.00 Build 0)  -->
<svg version="1.1" id="Layer_1" xmlns="http://www.w3.org/2000/svg" xmlns:xlink="http://www.w3.org/1999/xlink" x="0px" y="0px"
	 viewBox="0 0 228.5 84.7" style="enable-background:new 0 0 228.5 84.7;" xml:space="preserve">
<style type="text/css">
	.st0{fill:#FFFFFF;}
</style>
<g id="Group_2877" transform="translate(0 0)">
	<g id="Group_2851" transform="translate(0 24.435)">
		<g id="Group_2849">
			<path id="Path_1828" class="st0" d="M34.6,23.6c-2.3,3.3-6.1,5.2-10.1,5.2c-6.3,0-11-4.8-11-11.4c0-6,4.2-11.4,10.8-11.4
				c4.1,0,7.9,1.9,10.3,5.2V23.6z M35.1-0.1c-3.5-2.8-7.8-4.3-12.2-4.2C11.5-4.3,2.4,5.1,2.4,17.4C2.4,22.8,4.3,28,7.7,32
				c4,4.5,9.7,7.1,15.8,7.1c4.3,0.1,8.4-1.4,11.6-4.2v3.4h10.8V-3.5H35.1V-0.1z"/>
		</g>
		<g id="Group_2850" transform="translate(65.581)">
			<path id="Path_1829" class="st0" d="M6.7,28.8c-4,0-7.8-1.9-10.1-5.2V11.1C-0.9,7.9,2.9,6,7,6c6.5,0,10.8,5.4,10.8,11.4
				C17.7,24,13,28.8,6.7,28.8 M8.4-4.3C4-4.4-0.4-2.9-3.8-0.1v-3.4h-10.8v59h11.2V35.3c3.2,2.5,7.1,3.9,11.2,3.8
				c6,0,11.8-2.6,15.8-7.1c3.4-4.1,5.3-9.3,5.3-14.6C28.9,5.1,19.8-4.3,8.4-4.3"/>
		</g>
	</g>
	<g id="Group_2852" transform="translate(172.962 25.739)">
		<rect id="Rectangle_602" x="-42.3" y="-4.7" class="st0" width="11.2" height="41.7"/>
	</g>
	<g id="Group_2854" transform="translate(170.642 0)">
		<g id="Group_2853">
			<path id="Path_1830" class="st0" d="M-34.4,16.2c4,0.1,7.2-3.1,7.3-7V9.1c0-4-3.2-7.2-7.2-7.1h-0.1c-4-0.1-7.2,3.1-7.3,7v0.1
				C-41.7,13.1-38.5,16.3-34.4,16.2L-34.4,16.2"/>
		</g>
	</g>
	<g id="Group_2855" transform="translate(192.042 25.739)">
		<path id="Path_1831" class="st0" d="M-12.7-4.7l-11.4,25.5L-35.6-4.7h-11.6L-28,37.1h7.7L-1.1-4.7H-12.7z"/>
	</g>
	<g id="Group_2858" transform="translate(122.431 10.236)">
		<g id="Group_2856" transform="translate(127.147 14.503)">
			<path id="Path_1832" class="st0" d="M-50.7,11.9c0.5-3.8,4.3-7.3,9-7.3c4.2,0,7.8,3.1,8.3,7.3H-50.7z M-22,16.9
				c0-11.6-8.2-21.3-19.7-21.3C-54.1-4.4-62,5.7-62,17.4c0,13,9.3,21.6,21.8,21.6c6.5,0,13.1-2.7,17.1-7.5l-6.4-6.4
				c-2.7,3-6.5,4.7-10.5,4.8c-5.9,0-10.7-4-11.3-9.9h28.9C-22.1,19.1-22,18-22,16.9"/>
		</g>
		<g id="Group_2857">
			<path id="Path_1833" class="st0" d="M-7.6-0.7h-11.2v11.6h-10.4v9.5h10.4V35c0,5.9,0.9,9.6,3.1,12.5c2.8,3.8,7.7,6,14.5,6
				c1.8,0,3.5-0.2,5.3-0.5v-9.9c-1.5,0.3-3,0.4-4.6,0.4c-2.8,0-4.6-0.8-5.7-2.1c-0.9-1.1-1.4-2.7-1.4-5.3V20.4H4v-9.5H-7.6V-0.7z"/>
		</g>
	</g>
</g>
</svg>
